<svg width="640" height="400" viewBox="0 0 640 400" fill="none" xmlns="http://www.w3.org/2000/svg">
  <rect width="640" height="400" rx="32" fill="#1E1B16"/>
  <circle cx="184" cy="148" r="92" fill="#C86B2D"/>
  <ellipse cx="320" cy="210" rx="184" ry="88" fill="#E6B86A"/>
  <rect x="120" y="188" width="400" height="36" rx="18" fill="#8E4E24"/>
  <rect x="140" y="230" width="360" height="22" rx="11" fill="#3E7D3B"/>
  <rect x="132" y="258" width="376" height="24" rx="12" fill="#F5D17B"/>
  <rect x="146" y="286" width="348" height="24" rx="12" fill="#7B3F1D"/>
  <path d="M90 82C115 52 154 34 196 34C238 34 277 52 302 82" stroke="#F7F0E8" stroke-width="14" stroke-linecap="round"/>
  <path d="M338 82C363 52 402 34 444 34C486 34 525 52 550 82" stroke="#F7F0E8" stroke-width="14" stroke-linecap="round"/>
  <text x="50%" y="352" text-anchor="middle" font-family="Arial, Helvetica, sans-serif" font-size="28" font-weight="700" fill="#F7F0E8">MenuStream</text>
</svg>
